<svg width="313" height="404" xmlns="http://www.w3.org/2000/svg" fill="none">
 <defs>
  <linearGradient y2="0.55641" x2="0.48397" y1="-0.17793" x1="-0.54406" id="paint0_linear">
   <stop stop-color="white"/>
   <stop stop-opacity="0" stop-color="white" offset="1"/>
  </linearGradient>
  <linearGradient y2="0.9271" x2="1.39019" y1="0.05866" x1="-0.41924" id="paint1_linear">
   <stop stop-color="white"/>
   <stop stop-opacity="0" stop-color="white" offset="1"/>
  </linearGradient>
  <linearGradient y2="0.55636" x2="0.4839" y1="-0.17797" x1="-0.54413" id="paint2_linear">
   <stop stop-color="white"/>
   <stop stop-opacity="0" stop-color="white" offset="1"/>
  </linearGradient>
  <linearGradient y2="0.92704" x2="1.39006" y1="0.0586" x1="-0.41937" id="paint3_linear">
   <stop stop-color="white"/>
   <stop stop-opacity="0" stop-color="white" offset="1"/>
  </linearGradient>
  <linearGradient y2="0.66497" x2="0.61296" y1="0.29498" x1="0.3873" id="paint4_linear">
   <stop stop-color="white"/>
   <stop stop-opacity="0" stop-color="white" offset="1"/>
  </linearGradient>
  <linearGradient y2="0.66453" x2="0.61296" y1="0.29456" x1="0.38729" id="paint5_linear">
   <stop stop-color="white"/>
   <stop stop-opacity="0" stop-color="white" offset="1"/>
  </linearGradient>
  <linearGradient y2="0.96939" x2="0.44129" y1="-0.00501" x1="0.57062" id="paint6_linear">
   <stop stop-color="white"/>
   <stop stop-opacity="0" stop-color="white" offset="1"/>
  </linearGradient>
  <linearGradient y2="0.6623" x2="0.73465" y1="0.30545" x1="0.21828" id="paint7_linear">
   <stop stop-color="white"/>
   <stop stop-opacity="0" stop-color="white" offset="1"/>
  </linearGradient>
  <linearGradient y2="0.71758" x2="0.87695" y1="0.35508" x1="0.25054" id="paint8_linear">
   <stop stop-color="white"/>
   <stop stop-opacity="0" stop-color="white" offset="1"/>
  </linearGradient>
  <linearGradient y2="0.64785" x2="1.01443" y1="0.42815" x1="0.17443" id="paint9_linear">
   <stop stop-color="white"/>
   <stop stop-opacity="0" stop-color="white" offset="1"/>
  </linearGradient>
 </defs>
 <g>
  <title>Layer 1</title>
  <path id="svg_1" fill="url(#paint0_linear)" d="m146.574,123.837c27.383,-15.981 50.02,-1.045 54.025,33.442c0.696,5.965 -3.831,13.847 -9.36,17.069l-89.329,52.166c-5.5287,3.222 -10.0561,0.61 -9.3596,-6.183c4.005,-39.059 26.6856,-80.513 54.0236,-96.494z" opacity="0.5"/>
  <path id="svg_2" fill="url(#paint1_linear)" d="m116.058,79.0734c0,23.8186 13.756,35.0526 30.734,25.1246c16.978,-9.9277 30.734,-37.2299 30.734,-61.0486c0,-23.8187 -13.756,-35.05306 -30.734,-25.125c-16.978,9.9281 -30.734,37.2303 -30.734,61.049z" opacity="0.5"/>
  <path id="svg_3" fill="url(#paint2_linear)" d="m128.987,109.554c27.382,-15.9804 50.019,-1.045 54.024,33.442c0.697,5.966 -3.83,13.847 -9.359,17.07l-89.3292,52.166c-5.5286,3.222 -10.056,0.609 -9.3595,-6.184c4.005,-39.059 26.6417,-80.513 54.0237,-96.494z" opacity="0.07"/>
  <path id="svg_4" fill="url(#paint3_linear)" d="m98.4709,64.7909c0,23.8187 13.7561,35.0531 30.7341,25.125c16.978,-9.9281 30.734,-37.2303 30.734,-61.049c0,-23.81864 -13.756,-35.05304 -30.734,-25.12496c-16.978,9.92806 -30.7341,37.23026 -30.7341,61.04896z" opacity="0.07"/>
  <path id="svg_5" fill="url(#paint4_linear)" d="m39.31,246.651c0,-1.602 0.8544,-3.082 2.2415,-3.883l68.3895,-39.497c2.989,-1.727 6.727,0.431 6.727,3.883l0,32.554l-77.358,44.676l0,-37.733z" opacity="0.2"/>
  <path id="svg_6" fill="#794d01" d="m100.952,221.985c0,3.31 1.959,4.877 4.397,3.484c2.438,-1.393 4.397,-5.225 4.397,-8.535c0,-3.309 -1.959,-4.877 -4.397,-3.483c-2.438,1.393 -4.397,5.225 -4.397,8.534z"/>
  <path id="svg_7" fill="#FEFEFE" d="m96.8603,220.548l-23.2465,13.456l0,4.833l23.29,-13.455l-0.0435,-4.834z" opacity="0.15"/>
  <path id="svg_8" fill="#FEFEFE" d="m96.8602,230.259l-49.5402,28.608l0,4.921l49.5402,-28.609l0,-4.92z" opacity="0.15"/>
  <path id="svg_9" fill="url(#paint5_linear)" d="m196.463,200.06c0,-1.603 0.855,-3.083 2.243,-3.884l68.389,-39.459c2.99,-1.724 6.726,0.433 6.726,3.884l0,32.558l-77.358,44.676l0,-37.775z" opacity="0.2"/>
  <path id="svg_10" fill="#160b54" d="m258.105,175.393c0,3.31 1.959,4.877 4.397,3.484c2.438,-1.394 4.397,-5.226 4.397,-8.535c0,-3.309 -1.959,-4.877 -4.397,-3.483c-2.438,1.393 -4.397,5.225 -4.397,8.534z"/>
  <path id="svg_11" fill="#FEFEFE" d="m254.144,174.174l-14.018,8.099l0,4.921l14.018,-8.1l0,-4.92z" opacity="0.15"/>
  <path id="svg_12" fill="#FEFEFE" d="m254.013,183.884l-49.54,28.609l0,4.92l49.54,-28.608l0,-4.921z" opacity="0.15"/>
  <path id="svg_13" fill="url(#paint6_linear)" d="m146.614,249.832c0.002,-3.454 -3.736,-5.613 -6.727,-3.886l-137.60347,79.47c-1.38632,0.8 -2.24064,2.279 -2.24156,3.88l-0.04204,73.833l133.64507,-77.16l10.972,3.584c0.966,0.316 1.958,-0.404 1.958,-1.42l0.039,-78.301z" opacity="0.3"/>
  <path id="svg_14" fill="#794d01" d="m116.842,284.863c0,6.314 3.7,9.232 8.314,6.575c4.615,-2.656 8.315,-9.928 8.315,-16.198c0,-6.314 -3.7,-9.231 -8.315,-6.575c-4.57,2.656 -8.314,9.928 -8.314,16.198z"/>
  <path id="svg_15" fill="#FEFEFE" d="m108.919,282.425l-32.1273,18.55l0,6.705l32.1273,-18.549l0,-6.706z" opacity="0.15"/>
  <path id="svg_16" fill="#FEFEFE" d="m108.919,295.88l-95.9462,55.388l0,6.706l95.9462,-55.388l0,-6.706z" opacity="0.15"/>
  <path id="svg_17" fill="#FEFEFE" d="m108.919,309.335l-75.0069,43.327l0,6.705l75.0069,-43.326l0,-6.706z" opacity="0.15"/>
  <path id="svg_18" fill="url(#paint7_linear)" d="m166.424,266.593c0.001,-1.601 0.856,-3.081 2.243,-3.881l137.603,-79.428c2.99,-1.726 6.727,0.433 6.726,3.886l-0.04,68.649l-133.645,77.16l-10.193,15.105c-0.825,1.223 -2.734,0.638 -2.734,-0.836l0.04,-80.655z" opacity="0.3"/>
  <path id="svg_19" fill="#160b54" d="m196.202,272.41c0,6.313 -3.744,13.542 -8.315,16.198c-4.614,2.656 -8.315,-0.305 -8.315,-6.619c0,-6.314 3.744,-13.542 8.315,-16.198c4.571,-2.613 8.315,0.348 8.315,6.619z"/>
  <path id="svg_20" fill="#FEFEFE" d="m204.125,260.87l32.127,-18.549l0,6.705l-32.127,18.55l0,-6.706z" opacity="0.15"/>
  <path id="svg_21" fill="#FEFEFE" d="m204.081,274.282l95.946,-55.388l0,6.706l-95.902,55.388l-0.044,-6.706z" opacity="0.15"/>
  <path id="svg_22" fill="#FEFEFE" d="m204.081,287.737l75.007,-43.326l0,6.705l-75.007,43.327l0,-6.706z" opacity="0.15"/>
  <path id="svg_23" fill="url(#paint8_linear)" d="m251.967,311.599c-2.612,1.481 -4.701,5.139 -4.701,8.187l0,13.281l-8.794,5.051c-2.612,1.48 -4.701,5.138 -4.701,8.142c0,3.005 2.089,4.224 4.701,2.744l8.794,-5.095l0,13.281c0,3.005 2.089,4.224 4.701,2.743c2.612,-1.48 4.702,-5.138 4.702,-8.142l0,-13.281l8.793,-5.051c2.612,-1.481 4.702,-5.139 4.702,-8.143c0,-3.005 -2.09,-4.224 -4.702,-2.744l-8.793,5.052l0,-13.281c0.043,-3.048 -2.09,-4.268 -4.702,-2.744z" opacity="0.2"/>
  <path id="svg_24" fill="url(#paint9_linear)" d="m62.8176,141.472l-12.102,23.775c-1.6543,3.266 -1.3931,6.532 0.6094,7.316c2.0025,0.784 4.9627,-1.263 6.617,-4.529l0.1306,-0.305l0,26.388c0,3.005 2.0895,4.224 4.7015,2.743c2.612,-1.524 4.7015,-5.138 4.7015,-8.142l0,-26.388l0.1306,0.131c1.6543,1.349 4.658,-0.044 6.617,-3.136c2.0025,-3.091 2.2637,-6.662 0.6095,-8.012l-12.0151,-9.841z" opacity="0.2"/>
 </g>
</svg>